<svg xmlns="http://www.w3.org/2000/svg" viewBox="0 0 500 500"><g id="freepik--background-simple--inject-14"><path d="M253.13,157.66c-30,44.81-129.45-8.29-157.75,57.53C48.56,324.08,239.55,350.28,324.51,297.8c90-55.58,115.92-177.78,45.42-216.31C311.29,49.44,285.14,109.92,253.13,157.66Z" style="fill:#407BFF"></path><path d="M253.13,157.66c-30,44.81-129.45-8.29-157.75,57.53C48.56,324.08,239.55,350.28,324.51,297.8c90-55.58,115.92-177.78,45.42-216.31C311.29,49.44,285.14,109.92,253.13,157.66Z" style="fill:#fff;opacity:0.9"></path></g><g id="freepik--Shadow--inject-14"><ellipse cx="250" cy="416.24" rx="193.89" ry="11.32" style="fill:#f5f5f5"></ellipse></g><g id="freepik--Gear--inject-14"><path d="M175.89,163.15H163.41a3.27,3.27,0,0,0-2.82,1.62l-6.24,10.81a3.27,3.27,0,0,0,0,3.26l6.24,10.8a3.25,3.25,0,0,0,2.82,1.63h12.48a3.25,3.25,0,0,0,2.82-1.63l6.24-10.8a3.27,3.27,0,0,0,0-3.26l-6.24-10.81A3.27,3.27,0,0,0,175.89,163.15Z" style="fill:#407BFF"></path><path d="M175.89,163.15H163.41a3.27,3.27,0,0,0-2.82,1.62l-6.24,10.81a3.27,3.27,0,0,0,0,3.26l6.24,10.8a3.25,3.25,0,0,0,2.82,1.63h12.48a3.25,3.25,0,0,0,2.82-1.63l6.24-10.8a3.27,3.27,0,0,0,0-3.26l-6.24-10.81A3.27,3.27,0,0,0,175.89,163.15Z" style="fill:#fff;opacity:0.5"></path><path d="M96,127.33l-.71-.71,6-6,.71.71ZM106.33,117l-.71-.71,12.54-12.54.71.7Z" style="fill:#407BFF"></path><path d="M96,127.33l-.71-.71,6-6,.71.71ZM106.33,117l-.71-.71,12.54-12.54.71.7Z" style="fill:#fff;opacity:0.5"></path><path d="M254.5,199.84V154.58l-14-4.39h0c-.5-1.34-1.05-2.66-1.63-4h0l6.81-13-32-32-13,6.82h0c-1.31-.59-2.62-1.14-4-1.65l-4.39-14H147l-4.38,14h0c-1.35.51-2.66,1.06-4,1.65l-13-6.82-32,32,6.82,13c-.59,1.31-1.14,2.62-1.64,4h0l-14,4.39v45.26l14,4.38c.51,1.34,1.06,2.66,1.64,4l-6.82,13,32,32,13-6.82h0c1.3.59,2.61,1.14,4,1.65h0l4.38,14h45.26l4.39-14c1.34-.51,2.65-1.06,4-1.65h0l13,6.82,32-32-6.82-13c.58-1.3,1.14-2.62,1.64-4ZM203.33,177.2a33.68,33.68,0,1,1-33.68-33.68A33.69,33.69,0,0,1,203.33,177.2Z" style="fill:#407BFF"></path><path d="M254.5,199.84V154.58l-14-4.39h0c-.5-1.34-1.05-2.66-1.63-4h0l6.81-13-32-32-13,6.82h0c-1.31-.59-2.62-1.14-4-1.65l-4.39-14H147l-4.38,14h0c-1.35.51-2.66,1.06-4,1.65l-13-6.82-32,32,6.82,13c-.59,1.31-1.14,2.62-1.64,4h0l-14,4.39v45.26l14,4.38c.51,1.34,1.06,2.66,1.64,4l-6.82,13,32,32,13-6.82h0c1.3.59,2.61,1.14,4,1.65h0l4.38,14h45.26l4.39-14c1.34-.51,2.65-1.06,4-1.65h0l13,6.82,32-32-6.82-13c.58-1.3,1.14-2.62,1.64-4ZM203.33,177.2a33.68,33.68,0,1,1-33.68-33.68A33.69,33.69,0,0,1,203.33,177.2Z" style="fill:#fff;opacity:0.5"></path><path d="M190.08,259.31H149.23a.25.25,0,0,1-.24-.18l-4-12.62a.25.25,0,0,1,.48-.15l3.89,12.45h40.48L194,245.67a.26.26,0,0,1,.15-.16l1.37-.51c1.16-.44,2.39-.95,3.78-1.57l1.33-.6a.25.25,0,0,1,.2.46l-1.33.59c-1.39.63-2.64,1.14-3.8,1.58l-1.26.48-4.12,13.19A.26.26,0,0,1,190.08,259.31Zm23-9.53a.29.29,0,0,1-.18-.07.25.25,0,0,1,0-.36l28.76-28.75-6.39-12.2a.24.24,0,0,1,0-.22l.6-1.33c.6-1.35,1.11-2.59,1.56-3.77l.51-1.37a.26.26,0,0,1,.16-.15l13.15-4.11V157l-13-4.06a.25.25,0,1,1,.15-.47l13.14,4.1a.26.26,0,0,1,.17.24v40.85a.25.25,0,0,1-.17.24L238.37,202l-.47,1.26c-.45,1.19-1,2.43-1.58,3.8l-.54,1.22,6.41,12.25a.24.24,0,0,1,0,.29l-28.88,28.89A.31.31,0,0,1,213.09,249.78Zm-86.87,0a.29.29,0,0,1-.18-.07L97.15,220.82a.26.26,0,0,1,0-.29l6.47-12.36a.26.26,0,0,1,.34-.11.25.25,0,0,1,.1.34l-6.38,12.2,28.75,28.75a.25.25,0,0,1,0,.36A.28.28,0,0,1,126.22,249.78Zm17-4.49-.09,0c-1-.39-2.09-.85-3.3-1.39a.25.25,0,1,1,.2-.45c1.2.53,2.27,1,3.28,1.37a.25.25,0,0,1,.14.33A.24.24,0,0,1,143.19,245.29Zm26.46-31.14a37,37,0,0,1-36.93-37,.25.25,0,0,1,.5,0,36.43,36.43,0,1,0,36.43-36.43.25.25,0,0,1,0-.5,36.94,36.94,0,0,1,0,73.88Zm-68-10.73a.27.27,0,0,1-.24-.17l-.47-1.25-13.21-4.13a.25.25,0,0,1-.17-.24V156.78a.26.26,0,0,1,.17-.24l12.63-3.94a.26.26,0,0,1,.32.16.27.27,0,0,1-.17.32L88.05,157v40.48l13.15,4.11a.23.23,0,0,1,.15.15l.52,1.37a.25.25,0,0,1-.14.32Zm0-52h-.09a.26.26,0,0,1-.14-.33c.48-1.28,1-2.5,1.55-3.74a.25.25,0,0,1,.33-.12.25.25,0,0,1,.13.33c-.56,1.22-1.06,2.44-1.54,3.71A.26.26,0,0,1,101.65,151.45Zm134.19-5.71-.12,0a.25.25,0,0,1-.1-.34l6-11.55L236.84,129a.25.25,0,1,1,.35-.35l5,5a.24.24,0,0,1,0,.29l-6.13,11.71A.25.25,0,0,1,235.84,145.74ZM97.33,134a.26.26,0,0,1-.18-.07.26.26,0,0,1,0-.35L126,104.71a.23.23,0,0,1,.29,0l12.25,6.41,1.22-.54c1.18-.53,2.26-1,3.3-1.39a.25.25,0,0,1,.33.14.25.25,0,0,1-.15.32c-1,.41-2.1.86-3.27,1.38l-1.33.6a.28.28,0,0,1-.22,0l-12.2-6.39L97.51,134A.24.24,0,0,1,97.33,134Zm135.52-9.12a.26.26,0,0,1-.18-.07L213,105.19l-12.2,6.39a.22.22,0,0,1-.21,0l-1.33-.6c-1.37-.61-2.61-1.12-3.78-1.57l-1.37-.51a.26.26,0,0,1-.15-.16l-4.11-13.14H149.41l-3.54,11.31a.24.24,0,0,1-.31.16.25.25,0,0,1-.16-.31L149,95.28a.25.25,0,0,1,.24-.17h40.85a.26.26,0,0,1,.24.17l4.12,13.2,1.26.48c1.18.44,2.42,1,3.8,1.58l1.22.54L213,104.67a.24.24,0,0,1,.29,0L233,124.47a.25.25,0,0,1,0,.36A.26.26,0,0,1,232.85,124.9Z" style="fill:#fafafa"></path></g><g id="freepik--Character--inject-14"><path d="M313.34,185.39c3.13,4,6.06,8,8.92,12.13s5.58,8.35,8.15,12.75c.65,1.09,1.27,2.23,1.9,3.35a13.49,13.49,0,0,1,1.57,5.49,28.65,28.65,0,0,1-.84,8.67,61.61,61.61,0,0,1-5.62,14.61l-5.15-2a115.55,115.55,0,0,0,2.21-14,23.47,23.47,0,0,0-.2-6.1,3.71,3.71,0,0,0-.61-1.56c-.66-1-1.3-2-2-3-2.71-4-5.58-7.91-8.47-11.84l-8.69-11.78Z" style="fill:#ff8b7b"></path><path d="M321.91,239.81l-2.66,4.76,9.28,1.37s1-4-1.33-6.76Z" style="fill:#ff8b7b"></path><polygon points="317.85 250.9 325.58 251.68 328.53 245.94 319.25 244.57 317.85 250.9" style="fill:#ff8b7b"></polygon><path d="M343,279.3l2.76-14.69a6.55,6.55,0,0,1,7.63-5.23l23.17,4.34a30.62,30.62,0,0,0-46.73-16.44L224.71,185.06A30.62,30.62,0,0,0,170,163.76l23.17,4.34a6.57,6.57,0,0,1,5.22,7.64l-2.76,14.7a6.56,6.56,0,0,1-7.63,5.23l-23.17-4.35a30.62,30.62,0,0,0,47,16.27l104.91,62.1a30.62,30.62,0,0,0,54.66,21.6l-23.17-4.35A6.57,6.57,0,0,1,343,279.3Z" style="fill:#407BFF"></path><rect x="218.02" y="220.75" width="105.56" height="13.34" rx="3.26" transform="translate(153.6 -106.22) rotate(30.62)" style="fill:#407BFF"></rect><rect x="218.02" y="220.75" width="105.56" height="13.34" rx="3.26" transform="translate(153.6 -106.22) rotate(30.62)" style="fill:#fff;opacity:0.2"></rect><path d="M277.74,154.31c-.1.59-.48,1-.86,1s-.62-.59-.53-1.17.48-1,.86-.95S277.83,153.73,277.74,154.31Z" style="fill:#263238"></path><path d="M277.31,155.33a21.22,21.22,0,0,1-3.58,4.57,3.44,3.44,0,0,0,2.72,1Z" style="fill:#ff5652"></path><path d="M280.37,151.4a.33.33,0,0,1-.24-.1,2.75,2.75,0,0,0-2.37-.83.35.35,0,0,1-.42-.27.34.34,0,0,1,.27-.41,3.43,3.43,0,0,1,3,1,.37.37,0,0,1,0,.5A.39.39,0,0,1,280.37,151.4Z" style="fill:#263238"></path><path d="M297.27,160.76c-1,5.38-2.1,15.23,1.66,18.81,0,0-1.47,5.45-11.46,5.45-11,0-5.25-5.45-5.25-5.45,6-1.43,5.84-5.88,4.8-10Z" style="fill:#ff8b7b"></path><path d="M304,183.61a1.93,1.93,0,0,1-.27-.58c-.84-3.19-4.37-5.68-8.95-5.81-4.83-.12-10.28.46-13.5,3.12-1.42,1.17.15,2.88.15,2.88Z" style="fill:#407BFF"></path><path d="M304,183.61a1.93,1.93,0,0,1-.27-.58c-.84-3.19-4.37-5.68-8.95-5.81-4.83-.12-10.28.46-13.5,3.12-1.42,1.17.15,2.88.15,2.88Z" style="fill:#fff;opacity:0.5"></path><path d="M339.31,384.83h-.07a.71.71,0,0,1-.6-.57.82.82,0,0,1,.09-.68c.56-.95,3-1.45,3.07-1.47a.18.18,0,0,1,.18.07.19.19,0,0,1,0,.19C341.61,383,340.24,384.83,339.31,384.83Zm2.15-2.29c-.8.21-2.1.64-2.43,1.21a.42.42,0,0,0,0,.39c.09.31.25.33.29.34C339.77,384.54,340.83,383.46,341.46,382.54Z" style="fill:#407BFF"></path><path d="M340.64,382.58c-.91,0-1.93-.17-2.24-.61a.58.58,0,0,1,.06-.72,1,1,0,0,1,.67-.38c1.1-.12,2.75,1.21,2.82,1.27a.17.17,0,0,1-.06.3A4.63,4.63,0,0,1,340.64,382.58Zm-1.34-1.37h-.13a.57.57,0,0,0-.43.24c-.14.18-.08.27-.05.3.28.41,1.81.57,2.74.42A4.63,4.63,0,0,0,339.3,381.21Z" style="fill:#407BFF"></path><path d="M266.68,409.11c-.94,0-1.85-.13-2.16-.55a.66.66,0,0,1,0-.76.89.89,0,0,1,.56-.41c1.22-.33,3.79,1.13,3.9,1.2a.17.17,0,0,1,.08.18.18.18,0,0,1-.14.14A13.29,13.29,0,0,1,266.68,409.11Zm-1.17-1.42a1.15,1.15,0,0,0-.33,0,.51.51,0,0,0-.34.24c-.13.22-.08.33,0,.39.34.47,2.2.48,3.57.29A7.87,7.87,0,0,0,265.51,407.69Z" style="fill:#407BFF"></path><path d="M268.9,408.91h-.07c-.89-.4-2.65-2-2.51-2.82,0-.2.17-.44.65-.49a1.3,1.3,0,0,1,1,.3c.94.77,1.13,2.75,1.14,2.83a.17.17,0,0,1-.07.16A.19.19,0,0,1,268.9,408.91Zm-1.79-3H267c-.31,0-.33.15-.34.19-.08.5,1.12,1.75,2,2.29a4.08,4.08,0,0,0-1-2.26A.92.92,0,0,0,267.11,405.93Z" style="fill:#407BFF"></path><polygon points="276.98 408.74 269.63 408.74 268.9 391.73 276.25 391.73 276.98 408.74" style="fill:#ff8b7b"></polygon><polygon points="348.41 377.05 342.45 381.35 328.39 370.51 334.35 366.22 348.41 377.05" style="fill:#ff8b7b"></polygon><path d="M341.6,381.29l5.72-6a.63.63,0,0,1,.79-.1l5.72,3.47a1.09,1.09,0,0,1,.2,1.68c-2,2.05-3.13,2.94-5.64,5.56-1.55,1.61-5.75,7.27-7.89,9.5s-4.61.4-3.94-.7c3-4.94,4.46-9.84,4.54-12.28A1.81,1.81,0,0,1,341.6,381.29Z" style="fill:#263238"></path><path d="M269.68,407.89h8a.64.64,0,0,1,.63.5l1.45,6.53a1.07,1.07,0,0,1-1.06,1.3c-2.89,0-7.07-.21-10.71-.21-4.26,0-7.93.23-12.92.23-3,0-3.85-3.05-2.59-3.33,5.75-1.25,10.44-1.39,15.41-4.45A3.41,3.41,0,0,1,269.68,407.89Z" style="fill:#263238"></path><path d="M303.06,195.08c1,1.85,2.13,3.64,3.22,5.31,1.88,2.89,3.7,5.39,5,7.11,1.17,1.55,1.92,2.46,1.92,2.46L328,199.87s-9-17.52-15.93-18.64C304.94,180.1,298.41,186.78,303.06,195.08Z" style="fill:#407BFF"></path><path d="M303.06,195.08c1,1.85,2.13,3.64,3.22,5.31,1.88,2.89,3.7,5.39,5,7.11,1.17,1.55,1.92,2.46,1.92,2.46L328,199.87s-9-17.52-15.93-18.64C304.94,180.1,298.41,186.78,303.06,195.08Z" style="opacity:0.5"></path><path d="M306.28,200.39c1.88,2.89,3.7,5.39,5,7.11-.15-3.44-.86-9-3.53-13.24C306.78,195.22,306.39,197.7,306.28,200.39Z" style="fill:#407BFF"></path><path d="M306.28,200.39c1.88,2.89,3.7,5.39,5,7.11-.15-3.44-.86-9-3.53-13.24C306.78,195.22,306.39,197.7,306.28,200.39Z" style="opacity:0.6000000000000001"></path><path d="M267.31,205.56c0,2.5.06,5.25.2,8.28.36,8.24,1.26,18.51,3,31.27h39.29c.27-6-3.52-35.46,2.3-63.88a102.86,102.86,0,0,0-13.16-1.66,145.27,145.27,0,0,0-16.7,0,74.93,74.93,0,0,0-11.3,2S267.3,185.7,267.31,205.56Z" style="fill:#407BFF"></path><path d="M267.31,205.56c0,2.5.06,5.25.2,8.28.36,8.24,1.26,18.51,3,31.27h39.29c.27-6-3.52-35.46,2.3-63.88a102.86,102.86,0,0,0-13.16-1.66,145.27,145.27,0,0,0-16.7,0,74.93,74.93,0,0,0-11.3,2S267.3,185.7,267.31,205.56Z" style="opacity:0.5"></path><path d="M267.31,205.56c0,2.5.06,5.25.2,8.28,4.61-4.5,4.92-13.69,4.92-13.69Z" style="fill:#407BFF"></path><path d="M267.31,205.56c0,2.5.06,5.25.2,8.28,4.61-4.5,4.92-13.69,4.92-13.69Z" style="opacity:0.6000000000000001"></path><path d="M275.5,194.15a35,35,0,0,1-2.5,3.64c-.83,1.08-1.66,2.1-2.51,3.11-1.69,2-3.5,3.93-5.34,5.8a74.19,74.19,0,0,1-12.45,10.16,40.75,40.75,0,0,1-3.75,2.08l-.51.24-.25.12-.31.13a11.41,11.41,0,0,1-1.52.52l-.73.19-.7.12a11.14,11.14,0,0,1-1.35.15,26.08,26.08,0,0,1-8.88-1.25,58.53,58.53,0,0,1-14.35-6.71l2.37-5a106.47,106.47,0,0,0,13.87,3.16,19.68,19.68,0,0,0,6,.08,2.78,2.78,0,0,0,.5-.13l.22-.06.16-.07c.13,0,.16-.1.24-.13l.6-.35a29.76,29.76,0,0,0,2.67-1.75,76.29,76.29,0,0,0,10.25-9.28c1.63-1.71,3.2-3.5,4.73-5.28.76-.9,1.5-1.8,2.19-2.71s1.4-1.84,1.81-2.48Z" style="fill:#ff8b7b"></path><path d="M223.8,208.8,218.92,203l-3.32,8.48s4.21,2,7.49.84Z" style="fill:#ff8b7b"></path><polygon points="211.76 201.73 210.4 208.5 215.6 211.47 218.92 202.99 211.76 201.73" style="fill:#ff8b7b"></polygon><path d="M281.39,190.17c-.87,7-16.75,21.75-16.75,21.75l-14.3-11.34a82.57,82.57,0,0,1,12.52-14.53C273.22,177.07,282.44,181.81,281.39,190.17Z" style="fill:#407BFF"></path><path d="M281.39,190.17c-.87,7-16.75,21.75-16.75,21.75l-14.3-11.34a82.57,82.57,0,0,1,12.52-14.53C273.22,177.07,282.44,181.81,281.39,190.17Z" style="opacity:0.5"></path><path d="M269,237.42c14.27,0,17.53-16.14,18.28-23.07a87.14,87.14,0,0,0-12.27-33,.89.89,0,0,1,.59-1.35l3.13-.58a.93.93,0,0,1,.93.41c8.59,13.75,11.4,25.41,12.31,31.41h2.56c2.62-5.7,8.39-18.69,7.92-30.86a.88.88,0,0,1,1-.93l3.36.33a.88.88,0,0,1,.82.84c.49,11.73-6.14,28-8.69,33.17.87,19.14,11.52,22.45,11.52,22.45a72,72,0,0,1-.63,14.25c-22.55,3.66-33.79,1.43-40.22-1.23C270.11,244.45,269.21,241.08,269,237.42Z" style="fill:#407BFF"></path><path d="M269,237.42c14.27,0,17.53-16.14,18.28-23.07a87.14,87.14,0,0,0-12.27-33,.89.89,0,0,1,.59-1.35l3.13-.58a.93.93,0,0,1,.93.41c8.59,13.75,11.4,25.41,12.31,31.41h2.56c2.62-5.7,8.39-18.69,7.92-30.86a.88.88,0,0,1,1-.93l3.36.33a.88.88,0,0,1,.82.84c.49,11.73-6.14,28-8.69,33.17.87,19.14,11.52,22.45,11.52,22.45a72,72,0,0,1-.63,14.25c-22.55,3.66-33.79,1.43-40.22-1.23C270.11,244.45,269.21,241.08,269,237.42Z" style="opacity:0.30000000000000004"></path><polygon points="268.9 391.73 269.28 400.5 276.63 400.5 276.25 391.73 268.9 391.73" style="fill:#ff5652"></polygon><polygon points="334.36 366.22 328.4 370.52 335.65 376.1 341.61 371.8 334.36 366.22" style="fill:#ff5652"></polygon><path d="M297.46,156.13c-1.57,7.12-2.13,11.37-6.34,14.49-6.33,4.7-14.69,0-15.28-7.43-.53-6.7,2.12-17.22,9.61-19A10,10,0,0,1,297.46,156.13Z" style="fill:#ff8b7b"></path><path d="M303.81,145.08c6.25.17,3.68,3.46.55,5.27,0,0,3.61,1.73,1.75,5.86-2.82,6.27-8.22,13.16-13.73,12.78-6.86-.47-8.81-7.93-8.56-15.29-3.62-3.41-4.23-5.29-4.79-9.39C277.9,136.18,283,131.71,303.81,145.08Z" style="fill:#263238"></path><path d="M295.76,131.38a16.66,16.66,0,0,1,12,20.27l-32.29-8.24A16.67,16.67,0,0,1,295.76,131.38Z" style="fill:#407BFF"></path><path d="M295.76,131.38a16.66,16.66,0,0,1,12,20.27l-32.29-8.24A16.67,16.67,0,0,1,295.76,131.38Z" style="fill:#fff;opacity:0.5"></path><path d="M302.14,151.67a1.44,1.44,0,0,1-1.41-1.82,13.34,13.34,0,0,0-1.91-10.69,16.14,16.14,0,0,0-9.63-6.75,1.46,1.46,0,0,1,.72-2.83,19.05,19.05,0,0,1,11.35,8,16.24,16.24,0,0,1,2.3,13A1.46,1.46,0,0,1,302.14,151.67Z" style="fill:#407BFF"></path><path d="M302.14,151.67a1.44,1.44,0,0,1-1.41-1.82,13.34,13.34,0,0,0-1.91-10.69,16.14,16.14,0,0,0-9.63-6.75,1.46,1.46,0,0,1,.72-2.83,19.05,19.05,0,0,1,11.35,8,16.24,16.24,0,0,1,2.3,13A1.46,1.46,0,0,1,302.14,151.67Z" style="fill:#fff;opacity:0.30000000000000004"></path><path d="M271,143.84l38,9.7a1.54,1.54,0,0,0,1.87-1.11h0a1.55,1.55,0,0,0-1.11-1.88l-38-9.7a1.55,1.55,0,0,0-1.88,1.12h0A1.54,1.54,0,0,0,271,143.84Z" style="fill:#407BFF"></path><path d="M271,143.84l38,9.7a1.54,1.54,0,0,0,1.87-1.11h0a1.55,1.55,0,0,0-1.11-1.88l-38-9.7a1.55,1.55,0,0,0-1.88,1.12h0A1.54,1.54,0,0,0,271,143.84Z" style="fill:#fff;opacity:0.30000000000000004"></path><path d="M287.57,155.46a8.16,8.16,0,0,1-2.22,4.8c-1.66,1.71-3.3.56-3.51-1.6-.19-1.94.45-5.17,2.44-6.07S287.78,153.29,287.57,155.46Z" style="fill:#ff8b7b"></path><path d="M284.43,245.11s-.85,52.28,5.72,72.78C300.56,350.36,332,376.66,332,376.66l11.24-8.11S317.06,346.33,312.26,319c-4.31-24.57-2.48-53.8-2.48-73.87Z" style="fill:#407BFF"></path><path d="M284.43,245.11s-.85,52.28,5.72,72.78C300.56,350.36,332,376.66,332,376.66l11.24-8.11S317.06,346.33,312.26,319c-4.31-24.57-2.48-53.8-2.48-73.87Z" style="opacity:0.30000000000000004"></path><path d="M291.76,254.09c1.39,9.42-3.52,35.65-5.22,44.24-1.78-16.06-2.11-35.11-2.14-45.51C288,250.38,291.12,249.75,291.76,254.09Z" style="fill:#407BFF"></path><path d="M291.76,254.09c1.39,9.42-3.52,35.65-5.22,44.24-1.78-16.06-2.11-35.11-2.14-45.51C288,250.38,291.12,249.75,291.76,254.09Z" style="opacity:0.4"></path><path d="M327.19,374.29c-.05,0,4.62,2.75,4.62,2.75l12.27-8.86L340,365.05Z" style="fill:#407BFF"></path><path d="M327.19,374.29c-.05,0,4.62,2.75,4.62,2.75l12.27-8.86L340,365.05Z" style="fill:#fff;opacity:0.4"></path><path d="M270.49,245.11s-11.07,46.9-11.85,69.3c-.87,25.13,7.9,84.39,7.9,84.39H279s1.54-59.72,2.09-82.61c.6-24.95,15.25-71.08,15.25-71.08Z" style="fill:#407BFF"></path><path d="M270.49,245.11s-11.07,46.9-11.85,69.3c-.87,25.13,7.9,84.39,7.9,84.39H279s1.54-59.72,2.09-82.61c.6-24.95,15.25-71.08,15.25-71.08Z" style="opacity:0.30000000000000004"></path><path d="M264.14,393.84c-.05,0,.71,5.17.71,5.17H280l.41-4.61Z" style="fill:#407BFF"></path><path d="M264.14,393.84c-.05,0,.71,5.17.71,5.17H280l.41-4.61Z" style="fill:#fff;opacity:0.4"></path></g></svg>